<?xml version="1.0" standalone="no"?>
<!DOCTYPE svg PUBLIC "-//W3C//DTD SVG 20010904//EN"
 "http://www.w3.org/TR/2001/REC-SVG-20010904/DTD/svg10.dtd">
<svg version="1.0" xmlns="http://www.w3.org/2000/svg"
 width="300.000000pt" height="300.000000pt" viewBox="0 0 300.000000 300.000000"
 preserveAspectRatio="xMidYMid meet">
<metadata>
Created by potrace 1.10, written by Peter Selinger 2001-2011
</metadata>
<g transform="translate(0.000000,300.000000) scale(0.100000,-0.100000)"
fill="#000000" stroke="none">
<path d="M1284 2280 c-216 -56 -386 -222 -439 -427 -24 -93 -20 -240 10 -330
61 -180 195 -318 374 -383 84 -31 213 -53 276 -48 l40 3 3 51 3 51 -96 6
c-245 16 -426 146 -496 354 -18 54 -21 82 -17 166 3 93 7 109 41 181 85 179
264 286 482 289 l82 1 1 53 0 53 -96 -1 c-61 0 -124 -7 -168 -19z m224 -32 c3
-14 -4 -18 -30 -18 -43 0 -183 -25 -227 -41 -114 -41 -234 -146 -286 -253 -44
-89 -47 -100 -52 -218 -6 -114 11 -183 63 -269 97 -161 252 -254 459 -276 52
-6 70 -12 70 -23 0 -24 -108 -25 -201 0 -183 48 -315 156 -395 324 -39 82 -52
155 -46 256 7 112 12 132 54 220 27 55 57 95 110 148 40 39 79 72 88 72 8 0
15 4 15 9 0 15 143 70 220 84 14 3 54 4 90 3 53 -1 65 -4 68 -18z"/>
<path d="M1594 2245 c1 -50 3 -55 24 -55 20 0 22 5 22 55 0 51 -2 55 -23 55
-22 0 -24 -4 -23 -55z"/>
<path d="M1744 1985 l0 -305 52 0 c56 0 88 20 66 42 -9 9 -12 82 -12 246 0
260 -4 277 -66 307 -18 8 -34 15 -36 15 -1 0 -3 -137 -4 -305z m66 216 c11
-21 15 -473 4 -484 -3 -3 -12 -3 -20 0 -11 4 -14 50 -14 254 0 242 5 277 30
230z"/>
<path d="M1477 2130 l-177 -5 -49 -42 c-38 -33 -58 -43 -84 -43 -19 0 -40 -7
-47 -15 -11 -13 -5 -15 42 -15 51 0 56 3 98 45 l44 45 173 0 c147 0 173 2 173
15 0 20 17 19 23 0 4 -12 5 -11 3 1 -1 21 13 20 -199 14z"/>
<path d="M2014 2099 c-12 -6 -26 -21 -32 -33 -8 -18 -16 -21 -46 -18 -31 4
-36 1 -36 -17 0 -17 6 -21 34 -21 25 0 43 -8 65 -31 25 -25 37 -30 59 -25 35
9 62 41 62 76 0 54 -59 92 -106 69z m54 -41 c30 -30 0 -78 -37 -58 -26 13 -27
45 -3 59 22 13 26 13 40 -1z"/>
<path d="M1327 2036 c-4 -9 -14 -16 -23 -16 -9 0 -33 -13 -53 -30 -26 -20 -44
-27 -59 -23 -12 3 -33 -2 -46 -10 -13 -9 -40 -17 -61 -19 -21 -2 -40 -8 -42
-14 -3 -8 10 -10 39 -7 32 4 47 1 57 -11 19 -22 58 -20 71 4 15 28 82 89 98
90 7 0 21 -6 32 -12 27 -17 61 13 44 40 -14 22 -50 27 -57 8z m-137 -106 c0
-11 -7 -20 -15 -20 -15 0 -21 21 -8 33 12 13 23 7 23 -13z"/>
<path d="M1444 2041 c-2 -2 -4 -10 -4 -18 0 -10 28 -13 125 -13 112 0 125 2
125 18 0 15 -12 17 -121 17 -66 0 -123 -2 -125 -4z"/>
<path d="M1251 1884 l-40 -35 -96 2 c-60 1 -101 -3 -107 -9 -7 -7 -10 -13 -7
-14 2 -2 59 -1 126 2 118 5 122 6 146 33 l24 28 188 -2 c136 -1 190 2 191 10
2 7 0 7 -3 1 -7 -15 -23 -12 -23 5 0 13 -27 15 -180 15 l-180 0 -39 -36z"/>
<path d="M2002 1874 c-12 -8 -22 -22 -22 -30 0 -10 -12 -14 -41 -14 -33 0 -40
-3 -37 -17 2 -12 14 -19 36 -21 18 -2 43 -14 57 -28 31 -31 75 -31 103 -1 62
66 -22 163 -96 111z m73 -59 c0 -25 -4 -30 -24 -30 -32 0 -49 28 -31 50 7 9
23 15 34 13 16 -2 21 -10 21 -33z"/>
<path d="M1647 1838 c-21 -11 -22 -31 -3 -47 20 -16 46 -3 46 24 0 27 -19 37
-43 23z"/>
<path d="M1260 1770 l-65 -59 -107 -1 c-89 0 -108 -3 -108 -15 0 -13 20 -15
123 -15 l123 0 54 55 54 55 99 0 99 0 65 -60 c36 -33 70 -60 75 -60 14 0 22
30 10 42 -8 8 -9 5 -5 -11 3 -12 1 -21 -6 -21 -6 0 -11 6 -11 13 0 7 -28 41
-63 75 l-63 62 -105 0 -105 0 -64 -60z"/>
<path d="M994 1781 c-19 -19 5 -26 88 -25 72 1 93 4 93 15 0 10 -20 13 -88 14
-49 0 -90 -2 -93 -4z"/>
<path d="M1884 1739 c-8 -14 11 -33 25 -25 11 7 4 36 -9 36 -5 0 -12 -5 -16
-11z"/>
<path d="M1320 1680 c-62 -56 -67 -59 -118 -60 -45 0 -53 -3 -50 -17 2 -14 15
-19 61 -21 l58 -3 63 60 c62 61 63 61 122 61 56 0 62 -3 111 -45 40 -35 59
-45 87 -45 20 0 36 5 36 10 0 6 -13 10 -28 10 -20 0 -42 15 -82 55 l-54 55
-71 0 -70 0 -65 -60z"/>
<path d="M1036 1618 c-19 -27 -5 -58 27 -58 45 0 65 50 28 70 -28 15 -38 13
-55 -12z m54 -18 c0 -5 -5 -12 -11 -16 -14 -8 -33 11 -25 25 7 11 36 4 36 -9z"/>
<path d="M1750 1638 c0 -2 -2 -36 -3 -75 l-3 -73 53 0 53 0 0 75 0 75 -50 0
c-27 0 -50 -1 -50 -2z m65 -74 c0 -19 -6 -30 -17 -32 -14 -3 -18 3 -18 26 0
16 3 32 7 36 14 13 28 -1 28 -30z"/>
<path d="M1330 1574 l-55 -55 -123 3 c-78 2 -121 -1 -119 -7 2 -6 58 -12 125
-15 l121 -5 38 -37 c55 -54 66 -47 13 7 -27 28 -40 48 -35 54 83 77 107 91
156 91 47 0 54 -3 108 -55 32 -30 65 -55 74 -55 10 0 17 2 17 4 0 2 -28 31
-62 65 l-63 61 -70 0 -71 0 -54 -56z"/>
<path d="M1372 1533 c-5 -10 -7 -24 -5 -30 6 -16 49 -17 58 -2 10 16 67 0 96
-27 43 -41 56 -27 14 16 -32 33 -46 40 -76 40 -21 0 -41 5 -44 10 -10 16 -33
12 -43 -7z"/>
<path d="M1997 1493 c-8 -10 -18 -30 -22 -45 -9 -36 31 -78 74 -78 61 0 94 77
51 120 -25 25 -81 26 -103 3z m71 -25 c18 -18 15 -46 -7 -57 -14 -8 -22 -6
-35 8 -20 22 -20 26 0 45 19 19 26 20 42 4z"/>
<path d="M1093 1434 c-3 -7 -2 -18 2 -24 8 -13 35 -13 35 0 0 6 -4 9 -9 8 -5
-2 -9 0 -10 5 -1 4 1 7 4 7 3 0 39 0 80 0 74 0 76 -1 119 -40 l43 -40 169 2
169 2 -165 3 -165 4 -40 38 c-40 39 -41 39 -134 43 -69 3 -94 1 -98 -8z"/>
<path d="M1750 1446 c-1 -2 -1 -322 0 -329 0 -13 58 22 79 49 19 24 21 40 21
153 l0 127 -50 0 c-27 0 -50 0 -50 0z m70 -140 c-1 -84 -12 -126 -34 -126 -8
0 -8 215 0 223 3 3 12 3 20 0 11 -4 14 -27 14 -97z"/>
<path d="M1422 1423 c3 -16 19 -18 136 -21 127 -2 132 -2 132 18 0 19 -6 20
-136 20 -124 0 -135 -2 -132 -17z"/>
<path d="M1165 1359 c-4 -6 -2 -16 4 -22 8 -8 11 -6 11 6 0 26 47 12 86 -25
17 -16 49 -34 70 -39 54 -12 341 -12 349 1 4 7 -59 10 -181 10 l-188 0 -36 34
c-37 36 -103 56 -115 35z"/>
<path d="M1615 1203 c-17 -3 -20 -12 -20 -53 0 -45 2 -50 23 -50 20 0 22 5 22
55 0 30 -1 54 -2 54 -2 -1 -12 -4 -23 -6z"/>
<path d="M1086 991 c-63 -42 -84 -136 -46 -198 38 -63 108 -87 174 -59 38 16
39 17 21 36 -13 14 -22 17 -29 10 -13 -13 -72 -13 -97 0 -10 6 -26 25 -35 42
-22 42 -11 90 27 122 33 28 59 32 91 15 16 -9 24 -8 36 5 24 24 3 39 -60 43
-41 3 -60 0 -82 -16z"/>
<path d="M1320 865 c0 -138 1 -145 20 -145 18 0 20 7 20 55 l0 55 80 0 c80 0
80 0 80 26 l0 27 -80 -6 -80 -6 0 49 0 50 90 0 c83 0 90 1 90 20 0 19 -7 20
-110 20 l-110 0 0 -145z"/>
<path d="M1681 988 c-5 -13 -34 -76 -65 -142 -31 -65 -56 -120 -56 -122 0 -2
11 -4 24 -4 16 0 27 7 31 22 4 11 26 61 49 110 l41 88 49 -110 c41 -95 51
-110 72 -110 l23 0 -24 53 c-13 28 -41 93 -64 142 -41 93 -64 114 -80 73z"/>
<path d="M1950 865 c0 -138 1 -145 20 -145 19 0 20 7 20 145 0 138 -1 145 -20
145 -19 0 -20 -7 -20 -145z"/>
</g>
</svg>
